<svg width="16" height="17" viewBox="0 0 16 17" fill="none" xmlns="http://www.w3.org/2000/svg"><script xmlns=""/>
<path fill-rule="evenodd" clip-rule="evenodd" d="M4.70182 0.418411C5.55491 0.378498 5.82691 0.369629 8 0.369629C10.1731 0.369629 10.4451 0.379238 11.2975 0.418411C12.1498 0.457585 12.7316 0.595803 13.2407 0.796107C13.7738 1.00085 14.2575 1.32089 14.6575 1.7348C15.0647 2.14059 15.3789 2.63137 15.5796 3.17389C15.7775 3.69128 15.9127 4.28259 15.952 5.14737C15.9913 6.01585 16 6.29228 16 8.50006C16 10.7086 15.9905 10.985 15.952 11.852C15.9135 12.7168 15.7775 13.3081 15.5796 13.8255C15.3789 14.3681 15.0642 14.8597 14.6575 15.2661C14.2575 15.68 13.7738 15.9993 13.2407 16.2033C12.7316 16.4043 12.1498 16.5418 11.2989 16.5817C10.4451 16.6216 10.1731 16.6305 8 16.6305C5.82691 16.6305 5.55491 16.6209 4.70182 16.5817C3.85091 16.5425 3.26909 16.4043 2.76 16.2033C2.22612 15.9993 1.74241 15.6795 1.34255 15.2661C0.935549 14.8601 0.620593 14.3687 0.419636 13.8262C0.222545 13.3088 0.0872727 12.7175 0.048 11.8528C0.00872727 10.9843 0 10.7078 0 8.50006C0 6.29154 0.00945455 6.01511 0.048 5.14885C0.0865455 4.28259 0.222545 3.69128 0.419636 3.17389C0.620889 2.63143 0.936087 2.14008 1.34327 1.73406C1.74257 1.32052 2.2258 1.00043 2.75927 0.796107C3.26836 0.595803 3.85018 0.458325 4.70109 0.418411H4.70182ZM11.2327 1.88189C10.3891 1.84272 10.136 1.83459 8 1.83459C5.864 1.83459 5.61091 1.84272 4.76727 1.88189C3.98691 1.91811 3.56364 2.05041 3.28145 2.16202C2.90836 2.30985 2.64145 2.48502 2.36145 2.76959C2.09604 3.03201 1.89177 3.35149 1.76364 3.70459C1.65382 3.99137 1.52364 4.42154 1.488 5.21463C1.44945 6.07202 1.44145 6.32924 1.44145 8.50006C1.44145 10.6709 1.44945 10.9281 1.488 11.7855C1.52364 12.5786 1.65382 13.0088 1.76364 13.2955C1.89164 13.6481 2.096 13.9681 2.36145 14.2305C2.61964 14.5003 2.93455 14.708 3.28145 14.8381C3.56364 14.9497 3.98691 15.082 4.76727 15.1182C5.61091 15.1574 5.86327 15.1655 8 15.1655C10.1367 15.1655 10.3891 15.1574 11.2327 15.1182C12.0131 15.082 12.4364 14.9497 12.7185 14.8381C13.0916 14.6903 13.3585 14.5151 13.6385 14.2305C13.904 13.9681 14.1084 13.6481 14.2364 13.2955C14.3462 13.0088 14.4764 12.5786 14.512 11.7855C14.5505 10.9281 14.5585 10.6709 14.5585 8.50006C14.5585 6.32924 14.5505 6.07202 14.512 5.21463C14.4764 4.42154 14.3462 3.99137 14.2364 3.70459C14.0909 3.32541 13.9185 3.05415 13.6385 2.76959C13.3803 2.49985 13.066 2.29226 12.7185 2.16202C12.4364 2.05041 12.0131 1.91811 11.2327 1.88189ZM6.97818 11.0065C7.54887 11.2479 8.18429 11.2805 8.77593 11.0986C9.36764 10.9168 9.87884 10.5319 10.2223 10.0095C10.5657 9.48725 10.7201 8.85995 10.6589 8.23479C10.5978 7.60963 10.3251 7.02548 9.88727 6.58202C9.60815 6.29855 9.27069 6.08149 8.89913 5.94648C8.52764 5.81146 8.1312 5.76185 7.73855 5.80122C7.34589 5.84058 6.96665 5.96794 6.62822 6.17412C6.28978 6.3803 6.00054 6.66018 5.78131 6.9936C5.56208 7.32703 5.41832 7.70572 5.36038 8.10241C5.30243 8.49903 5.33175 8.90385 5.44621 9.28761C5.56068 9.67136 5.75744 10.0246 6.02234 10.3218C6.28724 10.619 6.61369 10.8529 6.97818 11.0065ZM5.09236 5.54502C5.4742 5.15695 5.92751 4.84913 6.4264 4.63911C6.92529 4.4291 7.46 4.321 8 4.321C8.54 4.321 9.07469 4.4291 9.5736 4.63911C10.0725 4.84913 10.5258 5.15695 10.9076 5.54502C11.2895 5.93308 11.5924 6.39378 11.799 6.90081C12.0057 7.40785 12.112 7.95126 12.112 8.50006C12.112 9.04887 12.0057 9.59228 11.799 10.0993C11.5924 10.6064 11.2895 11.0671 10.9076 11.4551C10.1365 12.2388 9.09055 12.6791 8 12.6791C6.90943 12.6791 5.86352 12.2388 5.09236 11.4551C4.32121 10.6714 3.88798 9.60839 3.88798 8.50006C3.88798 7.39174 4.32121 6.32875 5.09236 5.54502ZM13.024 4.94337C13.1186 4.85265 13.1944 4.74357 13.2468 4.62256C13.2991 4.50157 13.3271 4.37111 13.329 4.23892C13.3309 4.10674 13.3067 3.97551 13.2578 3.85301C13.2089 3.73051 13.1363 3.61922 13.0444 3.52575C12.9524 3.43227 12.8428 3.35849 12.7223 3.3088C12.6018 3.2591 12.4727 3.23448 12.3426 3.23641C12.2125 3.23833 12.0841 3.26676 11.9651 3.32002C11.846 3.37326 11.7387 3.45025 11.6495 3.54641C11.4759 3.73343 11.3808 3.98185 11.3845 4.23892C11.3882 4.496 11.4903 4.7415 11.6692 4.92329C11.8481 5.1051 12.0897 5.20889 12.3426 5.21263C12.5956 5.21638 12.84 5.11979 13.024 4.94337Z" fill="#757575"/>
</svg>