<svg width="1044" height="593" viewBox="0 0 1044 593" fill="none" xmlns="http://www.w3.org/2000/svg">
<g clip-path="url(#clip0_109_2)">
<path d="M588.67 296.36C588.67 460.03 456.89 592.71 294.34 592.71C131.79 592.71 0 460 0 296.36C0 132.72 131.78 0 294.34 0C456.9 0 588.67 132.69 588.67 296.36Z" fill="#6D6D6D"/>
<path d="M911.56 296.36C911.56 450.42 845.67 575.36 764.39 575.36C683.11 575.36 617.22 450.42 617.22 296.36C617.22 142.3 683.1 17.36 764.38 17.36C845.66 17.36 911.55 142.26 911.55 296.36" fill="#6D6D6D"/>
<path d="M1043.63 296.36C1043.63 434.36 1020.46 546.3 991.87 546.3C963.28 546.3 940.12 434.39 940.12 296.36C940.12 158.33 963.29 46.42 991.87 46.42C1020.45 46.42 1043.63 158.32 1043.63 296.36Z" fill="#6D6D6D"/>
</g>
<defs>
<clipPath id="clip0_109_2">
<rect width="1043.63" height="592.71" fill="white"/>
</clipPath>
</defs>
</svg>
